<?xml version="1.0" encoding="utf-8"?>
<!-- Generator: Adobe Illustrator 24.0.1, SVG Export Plug-In . SVG Version: 6.00 Build 0)  -->
<svg version="1.1" id="Layer_1" xmlns="http://www.w3.org/2000/svg" xmlns:xlink="http://www.w3.org/1999/xlink" x="0px" y="0px"
	 viewBox="0 0 250 250" style="enable-background:new 0 0 250 250;" xml:space="preserve">
<style type="text/css">
	.st0{fill:#A00082;}
	.st1{fill:#25316D;}
	.st2{fill:#D800A6;}
	.st3{fill:#0071BC;}
</style>
<g>
	<g>
		<path class="st0" d="M27.76,116.33c4.71,4.71,4.71,12.34,0,17.05l-2.29,2.29l-8.89,8.89c-2.87,2.87-7.55,3.01-10.48,0.2
			c-3-2.88-3.04-7.69-0.11-10.62l8.98-8.98c0,0,9.9-11.09,5.64-15.98L27.76,116.33z"/>
		<path class="st1" d="M25.78,114.34l1.98,1.98c4.71,4.71,4.71,12.34,0,17.05l-2.29,2.29l-10.51-10.51l-8.66-8.66
			c-2.87-2.87-3.11-7.52-0.41-10.56c2.93-3.31,8.06-3.42,11.14-0.34L25.78,114.34z"/>
		<path class="st1" d="M25.51,135.66l-1.98-1.98c-4.71-4.71-4.71-12.34,0-17.05l2.29-2.29l8.89-8.89c2.87-2.87,7.55-3.01,10.48-0.2
			c3,2.88,3.04,7.69,0.11,10.62l-8.98,8.98l8.66,8.66c2.87,2.87,3.11,7.52,0.41,10.56c-2.93,3.31-8.06,3.42-11.14,0.34L25.51,135.66
			z"/>
		<path class="st2" d="M23.53,133.67c-4.71-4.71-4.71-12.34,0-17.05l2.29-2.29l8.89-8.89c2.87-2.87,7.55-3.01,10.48-0.2
			c3,2.88,3.04,7.69,0.11,10.62l-8.98,8.98c0,0-9.9,11.09-5.64,15.98L23.53,133.67z"/>
	</g>
	<g>
		<g>
			<path class="st3" d="M54.45,123.67v-0.11c0-7.74,6.05-14.32,14.32-14.32c8.22,0,14.26,6.47,14.26,14.21v0.11
				c0,7.74-6.1,14.32-14.37,14.32C60.44,137.88,54.45,131.41,54.45,123.67z M78.84,123.67v-0.11c0-5.89-4.4-10.71-10.18-10.71
				c-5.94,0-10.02,4.83-10.02,10.61v0.11c0,5.89,4.35,10.66,10.13,10.66C74.7,134.22,78.84,129.45,78.84,123.67z"/>
			<path class="st3" d="M90.4,111.63c0-1.11,0.9-2.07,2.01-2.07c1.17,0,2.07,0.9,2.07,2.07v2.81c1.8-2.7,4.24-5.2,8.86-5.2
				c4.45,0,7.32,2.39,8.8,5.46c1.96-3.02,4.88-5.46,9.65-5.46c6.31,0,10.18,4.24,10.18,11.03v15.17c0,1.17-0.9,2.07-2.02,2.07
				c-1.17,0-2.07-0.9-2.07-2.07v-14.21c0-5.3-2.65-8.27-7.11-8.27c-4.14,0-7.53,3.08-7.53,8.48v14c0,1.17-0.9,2.07-2.07,2.07
				c-1.11,0-2.02-0.9-2.02-2.07v-14.32c0-5.14-2.7-8.17-7.05-8.17s-7.64,3.61-7.64,8.64v13.84c0,1.17-0.85,2.07-2.02,2.07
				c-1.17,0-2.07-0.9-2.07-2.07V111.63z"/>
			<path class="st3" d="M152.81,137.88c-7.53,0-13.68-5.78-13.68-14.26v-0.11c0-7.9,5.57-14.26,13.15-14.26
				c8.11,0,12.73,6.63,12.73,13.89c0,1.11-0.9,1.91-1.91,1.91h-19.83c0.58,5.94,4.77,9.28,9.65,9.28c3.39,0,5.89-1.33,7.9-3.18
				c0.32-0.26,0.69-0.48,1.17-0.48c1.01,0,1.8,0.8,1.8,1.75c0,0.48-0.21,0.95-0.64,1.33C160.55,136.24,157.48,137.88,152.81,137.88z
				 M160.92,122.03c-0.42-4.98-3.29-9.33-8.75-9.33c-4.77,0-8.38,3.98-8.91,9.33H160.92z"/>
			<path class="st3" d="M172.22,111.63c0-1.11,0.9-2.07,2.01-2.07c1.17,0,2.07,0.9,2.07,2.07v5.14c2.01-4.56,5.99-7.32,9.44-7.32
				c1.22,0,2.01,0.9,2.01,2.07c0,1.11-0.74,1.91-1.8,2.07c-5.3,0.64-9.65,4.61-9.65,12.51v9.33c0,1.11-0.85,2.07-2.02,2.07
				c-1.17,0-2.07-0.9-2.07-2.07V111.63z"/>
			<path class="st3" d="M190.83,123.67v-0.11c0-7.74,6.04-14.32,14.05-14.32c4.56,0,7.64,1.75,10.07,3.98
				c0.32,0.27,0.64,0.8,0.64,1.43c0,1.11-0.9,1.96-1.96,1.96c-0.53,0-1.01-0.21-1.33-0.48c-1.96-1.8-4.19-3.29-7.48-3.29
				c-5.57,0-9.81,4.72-9.81,10.61v0.11c0,5.94,4.35,10.66,10.07,10.66c3.13,0,5.62-1.43,7.64-3.34c0.26-0.27,0.64-0.53,1.17-0.53
				c1.01,0,1.86,0.9,1.86,1.86c0,0.48-0.21,0.95-0.53,1.27c-2.6,2.6-5.73,4.4-10.34,4.4C196.87,137.88,190.83,131.36,190.83,123.67z
				"/>
			<path class="st3" d="M233.99,137.88c-7.53,0-13.68-5.78-13.68-14.26v-0.11c0-7.9,5.57-14.26,13.15-14.26
				c8.11,0,12.73,6.63,12.73,13.89c0,1.11-0.9,1.91-1.91,1.91h-19.83c0.58,5.94,4.77,9.28,9.65,9.28c3.39,0,5.89-1.33,7.9-3.18
				c0.32-0.26,0.69-0.48,1.17-0.48c1.01,0,1.8,0.8,1.8,1.75c0,0.48-0.21,0.95-0.64,1.33C241.73,136.24,238.66,137.88,233.99,137.88z
				 M242.11,122.03c-0.42-4.98-3.29-9.33-8.75-9.33c-4.77,0-8.38,3.98-8.91,9.33H242.11z"/>
		</g>
		<g>
			<path class="st1" d="M54.45,123.67v-0.11c0-7.74,6.05-14.32,14.32-14.32c8.22,0,14.26,6.47,14.26,14.21v0.11
				c0,7.74-6.1,14.32-14.37,14.32C60.44,137.88,54.45,131.41,54.45,123.67z M78.84,123.67v-0.11c0-5.89-4.4-10.71-10.18-10.71
				c-5.94,0-10.02,4.83-10.02,10.61v0.11c0,5.89,4.35,10.66,10.13,10.66C74.7,134.22,78.84,129.45,78.84,123.67z"/>
			<path class="st1" d="M90.4,111.63c0-1.11,0.9-2.07,2.01-2.07c1.17,0,2.07,0.9,2.07,2.07v2.81c1.8-2.7,4.24-5.2,8.86-5.2
				c4.45,0,7.32,2.39,8.8,5.46c1.96-3.02,4.88-5.46,9.65-5.46c6.31,0,10.18,4.24,10.18,11.03v15.17c0,1.17-0.9,2.07-2.02,2.07
				c-1.17,0-2.07-0.9-2.07-2.07v-14.21c0-5.3-2.65-8.27-7.11-8.27c-4.14,0-7.53,3.08-7.53,8.48v14c0,1.17-0.9,2.07-2.07,2.07
				c-1.11,0-2.02-0.9-2.02-2.07v-14.32c0-5.14-2.7-8.17-7.05-8.17s-7.64,3.61-7.64,8.64v13.84c0,1.17-0.85,2.07-2.02,2.07
				c-1.17,0-2.07-0.9-2.07-2.07V111.63z"/>
			<path class="st1" d="M152.81,137.88c-7.53,0-13.68-5.78-13.68-14.26v-0.11c0-7.9,5.57-14.26,13.15-14.26
				c8.11,0,12.73,6.63,12.73,13.89c0,1.11-0.9,1.91-1.91,1.91h-19.83c0.58,5.94,4.77,9.28,9.65,9.28c3.39,0,5.89-1.33,7.9-3.18
				c0.32-0.26,0.69-0.48,1.17-0.48c1.01,0,1.8,0.8,1.8,1.75c0,0.48-0.21,0.95-0.64,1.33C160.55,136.24,157.48,137.88,152.81,137.88z
				 M160.92,122.03c-0.42-4.98-3.29-9.33-8.75-9.33c-4.77,0-8.38,3.98-8.91,9.33H160.92z"/>
			<path class="st1" d="M172.22,111.63c0-1.11,0.9-2.07,2.01-2.07c1.17,0,2.07,0.9,2.07,2.07v5.14c2.01-4.56,5.99-7.32,9.44-7.32
				c1.22,0,2.01,0.9,2.01,2.07c0,1.11-0.74,1.91-1.8,2.07c-5.3,0.64-9.65,4.61-9.65,12.51v9.33c0,1.11-0.85,2.07-2.02,2.07
				c-1.17,0-2.07-0.9-2.07-2.07V111.63z"/>
			<path class="st1" d="M190.83,123.67v-0.11c0-7.74,6.04-14.32,14.05-14.32c4.56,0,7.64,1.75,10.07,3.98
				c0.32,0.27,0.64,0.8,0.64,1.43c0,1.11-0.9,1.96-1.96,1.96c-0.53,0-1.01-0.21-1.33-0.48c-1.96-1.8-4.19-3.29-7.48-3.29
				c-5.57,0-9.81,4.72-9.81,10.61v0.11c0,5.94,4.35,10.66,10.07,10.66c3.13,0,5.62-1.43,7.64-3.34c0.26-0.27,0.64-0.53,1.17-0.53
				c1.01,0,1.86,0.9,1.86,1.86c0,0.48-0.21,0.95-0.53,1.27c-2.6,2.6-5.73,4.4-10.34,4.4C196.87,137.88,190.83,131.36,190.83,123.67z
				"/>
			<path class="st1" d="M233.99,137.88c-7.53,0-13.68-5.78-13.68-14.26v-0.11c0-7.9,5.57-14.26,13.15-14.26
				c8.11,0,12.73,6.63,12.73,13.89c0,1.11-0.9,1.91-1.91,1.91h-19.83c0.58,5.94,4.77,9.28,9.65,9.28c3.39,0,5.89-1.33,7.9-3.18
				c0.32-0.26,0.69-0.48,1.17-0.48c1.01,0,1.8,0.8,1.8,1.75c0,0.48-0.21,0.95-0.64,1.33C241.73,136.24,238.66,137.88,233.99,137.88z
				 M242.11,122.03c-0.42-4.98-3.29-9.33-8.75-9.33c-4.77,0-8.38,3.98-8.91,9.33H242.11z"/>
		</g>
	</g>
</g>
</svg>
